<?xml version="1.0" encoding="UTF-8" standalone="no"?>
<!-- Created with Inkscape (http://www.inkscape.org/) -->

<svg
   xmlns:dc="http://purl.org/dc/elements/1.1/"
   xmlns:cc="http://creativecommons.org/ns#"
   xmlns:rdf="http://www.w3.org/1999/02/22-rdf-syntax-ns#"
   xmlns:svg="http://www.w3.org/2000/svg"
   xmlns="http://www.w3.org/2000/svg"
   xmlns:sodipodi="http://sodipodi.sourceforge.net/DTD/sodipodi-0.dtd"
   xmlns:inkscape="http://www.inkscape.org/namespaces/inkscape"
   width="210mm"
   height="297mm"
   viewBox="0 0 744.09448819 1052.3622047"
   id="svg2"
   version="1.1"
   inkscape:version="0.91 r13725"
   sodipodi:docname="The-Guild-of-Calamitous-Intent-Logo.svg">
  <defs
     id="defs4" />
  <sodipodi:namedview
     id="base"
     pagecolor="#ffffff"
     bordercolor="#666666"
     borderopacity="1.0"
     inkscape:pageopacity="0.0"
     inkscape:pageshadow="2"
     inkscape:zoom="1.4"
     inkscape:cx="310.02865"
     inkscape:cy="895.18079"
     inkscape:document-units="px"
     inkscape:current-layer="layer1"
     showgrid="false"
     inkscape:window-width="1600"
     inkscape:window-height="837"
     inkscape:window-x="-8"
     inkscape:window-y="-8"
     inkscape:window-maximized="1" />
  <metadata
     id="metadata7">
    <rdf:RDF>
      <cc:Work
         rdf:about="">
        <dc:format>image/svg+xml</dc:format>
        <dc:type
           rdf:resource="http://purl.org/dc/dcmitype/StillImage" />
        <dc:title></dc:title>
      </cc:Work>
    </rdf:RDF>
  </metadata>
  <g
     inkscape:label="Layer 1"
     inkscape:groupmode="layer"
     id="layer1">
    <path
       style="fill:#000000"
       d="m 305.8504,496.83953 c -40.17086,-4.8605 -79.91507,-21.08768 -111.85817,-45.67064 -19.71235,-15.17034 -42.84092,-40.0268 -56.11447,-60.30667 -13.41579,-20.4972 -26.47707,-51.77649 -31.65389,-75.80507 -6.958462,-32.29828 -6.783476,-74.96943 0.43872,-106.98328 7.57603,-33.58225 23.89723,-67.02551 45.9778,-94.21165 9.48037,-11.67247 29.49788,-31.184032 41.35184,-40.306672 30.89141,-23.77359 68.10824,-39.30822 108.65062,-45.35173 14.09594,-2.10123 58.12296,-1.80752 72,0.48033 42.45518,6.9994 79.01187,23.19487 111,49.17561 11.67247,9.48038 31.18403,29.497882 40.30667,41.351842 19.66397,25.55136 35.47375,59.50444 42.11946,90.45569 6.94237,32.33296 6.77287,74.99771 -0.42463,106.8822 -5.54935,24.58328 -17.86571,53.88442 -31.23641,74.31273 -17.95232,27.42828 -47.37861,56.2873 -74.61447,73.17605 -20.55738,12.74749 -48.95097,24.2867 -71.95569,29.24296 -23.11811,4.9806 -59.49442,6.5218 -83.98738,3.5583 z m 53.86877,-6.5403 c 40.22459,-3.91422 79.29093,-18.78254 112.42368,-42.78748 12.29531,-8.90806 34.33756,-30.03233 43.98117,-42.14953 34.44028,-43.27421 51.68601,-95.67268 49.69812,-151 -1.75839,-48.93984 -17.66171,-93.26613 -47.53815,-132.5 -6.43642,-8.45234 -25.04546,-27.449192 -35.29736,-36.032972 -53.47893,-44.77717 -126.28088,-62.17484 -196.34378,-46.92079 -32.23819,7.01888 -67.23886,23.93153 -93.5,45.18008 -9.93235,8.0365 -31.15116,29.884662 -38.14239,39.273682 -32.89852,44.18177 -48.49991,93.48212 -46.51901,147 0.92397,24.96279 4.36697,44.14732 11.80152,65.75839 11.50398,33.4403 27.78183,59.90712 52.33878,85.09978 28.61585,29.35663 57.94033,47.63268 95.62278,59.59548 28.55308,9.06456 61.10171,12.43896 91.47464,9.48336 z m -40.07632,-2.55543 c -31.5235,-3.27783 -56.18551,-10.13964 -82.13483,-22.8527 -59.14763,-28.97755 -103.34043,-83.49606 -119.26394,-147.13011 -5.37549,-21.48174 -6.5731,-31.72143 -6.53775,-55.89877 0.036,-24.64896 1.68691,-37.13316 7.91218,-59.83312 20.79866,-75.84077 81.28161,-136.388802 156.96146,-157.130342 22.6085,-6.1963 35.38076,-7.90188 59.56288,-7.9539 24.33296,-0.0523 35.7395,1.32228 57.72127,6.95613 44.67436,11.44987 86.24158,37.52553 115.51048,72.461232 27.2147,32.48379 44.43423,70.48193 51.43453,113.5 2.50194,15.37481 2.50119,49.63325 -10e-4,65 -13.70608,84.15953 -68.05447,150.75563 -146.8006,179.88297 -23.04216,8.52304 -45.59436,12.63116 -71.86426,13.09082 -10.175,0.17804 -20.3,0.13655 -22.5,-0.0922 z m 29.9433,-11.60409 c 1.1219,-1.60173 1.5567,-4.67415 1.5567,-11 0,-7.13555 0.28059,-8.77749 1.5,-8.77749 0.825,0 1.5,-0.675 1.5,-1.5 0,-1.04762 -1.05556,-1.5 -3.5,-1.5 -2.44444,0 -3.5,0.45238 -3.5,1.5 0,0.825 0.46689,1.5 1.03753,1.5 0.66264,0 0.93363,3.34221 0.75,9.25 -0.27645,8.89344 -0.37954,9.26301 -2.67444,9.58749 -1.3128,0.18562 -2.76841,-0.26438 -3.23469,-1 -1.21058,-1.90987 -1.102,-17.83749 0.1216,-17.83749 0.55,0 1,-0.675 1,-1.5 0,-1.11111 -1.16667,-1.5 -4.5,-1.5 -3.33333,0 -4.5,0.38889 -4.5,1.5 0,0.825 0.675,1.5 1.5,1.5 1.22222,0 1.5,1.66667 1.5,9 0,7.66667 0.2963,9.2963 2,11 2.7177,2.7177 7.4622,2.60591 9.4433,-0.22251 z m -45.55759,-2.40999 c 1.28189,-0.89788 3.17214,-3.48538 4.20054,-5.75 4.06412,-8.94951 1.27992,-17.6175 -5.65883,-17.6175 -4.5156,0 -6.95956,2.5828 -8.96208,9.47124 -1.86367,6.41078 -0.84589,11.44838 2.83369,14.02566 2.75778,1.93162 4.69124,1.89865 7.58668,-0.1294 z m -6.21904,-2.03417 c -1.38578,-1.38578 -0.55448,-10.98372 1.3064,-15.08333 3.7399,-8.23917 8.18428,-3.63804 6.1707,6.38832 -1.45415,7.24073 -4.91122,11.2609 -7.4771,8.69501 z m 90.2276,0.37931 c 3.24791,0.43564 4.09287,0.11917 5.93517,-2.22294 4.14751,-5.2727 0.34382,-11.53324 -7.55898,-12.44146 -4.27563,-0.49137 -4.77046,-0.80756 -4.77046,-3.04824 0,-2.06139 0.54127,-2.55282 3.08517,-2.80107 1.87803,-0.18326 3.58886,0.30583 4.37245,1.25 2.14788,2.58805 2.9156,1.74794 1.781,-1.94893 -0.99547,-3.24352 -2.73862,-4.82266 -2.73862,-2.48095 0,0.58844 -1.0595,0.75314 -2.50729,0.38977 -3.90725,-0.98066 -7.49271,1.89214 -7.49271,6.00345 0,5.07046 2.81878,7.86122 8.61203,8.52645 4.19671,0.4819 4.9357,0.89884 5.22546,2.94819 0.32962,2.33119 -1.15759,4.06707 -3.51076,4.09778 -0.64531,0.008 -2.55781,-1.14969 -4.25,-2.57358 -3.46747,-2.91768 -3.56288,-2.76369 -1.84194,2.97287 0.67913,2.26381 1.37825,3.37458 1.55361,2.46837 0.25094,-1.29681 1.12523,-1.53949 4.10587,-1.13971 z M 256.6089,459.61222 c -0.33908,-1.9268 0.64127,-4.84541 3.275,-9.75 3.93955,-7.33633 5.75895,-8.20491 5.75895,-2.74934 0,1.78786 0.25415,3.25036 0.56479,3.25 0.64387,-7.5e-4 4.17587,-7.11195 3.72807,-7.50595 -0.85403,-0.75142 -12.86209,-6.49471 -13.57913,-6.49471 -0.46382,0 -1.59437,1.575 -2.51234,3.5 -0.91797,1.925 -1.22631,3.5 -0.68521,3.5 0.5411,0 0.98382,-0.43417 0.98382,-0.96482 0,-1.42943 4.08252,-3.35538 5.04036,-2.37782 1.07114,1.0932 -7.14867,16.84264 -8.79036,16.84264 -2.28616,0 -1.1932,1.97731 2.04966,3.70808 4.33579,2.3141 4.72643,2.22427 4.16639,-0.95808 z m -35.79587,-17.5 c -0.72953,-3.00281 8.45474,-15.75 11.34777,-15.75 2.74476,0 2.47719,-1.26338 -0.76795,-3.62608 -5.20148,-3.78706 -5.62108,-3.90095 -4.95249,-1.34426 0.7591,2.90283 -7.20253,14.60353 -10.89109,16.00592 -1.32353,0.5032 -2.40642,1.13483 -2.40642,1.40362 0,0.49387 7.1442,5.5608 7.84054,5.5608 0.20695,0 0.13029,-1.0125 -0.17036,-2.25 z m 234.96179,0.16844 c 3.31329,-2.04773 4.8054,-5.40724 1.90774,-4.2953 -2.1001,0.80588 -11.97013,-14.39959 -10.49818,-16.17318 1.95152,-2.35144 -0.50861,-2.23458 -4.32749,0.20557 -3.48929,2.22954 -4.42702,4.93903 -1.29316,3.73646 2.00562,-0.76963 10.93901,13.89873 10.09131,16.56961 -0.81459,2.56653 -0.0905,2.55895 4.11978,-0.0432 z M 354.2869,441.31701 c 70.7829,-7.14399 131.00476,-55.06823 153.24905,-121.95479 7.55565,-22.71917 10.77587,-48.72357 8.79361,-71.01165 -7.47677,-84.06732 -68.50325,-149.889252 -151.68671,-163.606232 -13.18074,-2.1735 -38.65211,-2.43891 -51.90884,-0.54088 -75.49597,10.80914 -136.25213,67.691282 -151.55838,141.894512 -11.54496,55.96886 3.55251,111.67843 42.38463,156.39902 35.83416,41.26802 95.17781,64.42647 150.72664,58.82002 z m -38.14405,-4.06307 C 242.9219,428.96715 180.80609,372.92292 165.24663,301.10723 c -15.37521,-70.96526 12.73227,-142.51779 72.4041,-184.3174 17.99755,-12.60713 45.67535,-23.841762 68.99212,-28.004422 15.00468,-2.67873 46.99961,-2.49347 62.58078,0.36236 54.00588,9.89861 101.20396,45.445562 125.75873,94.714452 27.40194,54.98168 23.2946,124.57553 -10.32826,175 -37.59111,56.37569 -101.27437,86.00125 -168.51125,78.39172 z m 10.76845,-6.72745 c 0.85741,-0.54421 -0.41807,-1.59242 -3.93606,-3.23469 -2.86247,-1.33627 -6.99179,-3.72134 -9.17625,-5.30016 l -3.97175,-2.87059 -4.07588,1.97406 -4.07588,1.97406 3.15335,1.63066 c 2.54081,1.31391 18.34769,6.44476 20.31402,6.59385 0.275,0.0208 1.0708,-0.32438 1.76845,-0.76719 z m 35.71454,-2.6903 c 4.25605,-1.38931 8.9206,-3.14551 10.36568,-3.90266 l 2.62741,-1.37664 -3.63953,-1.73557 c -3.57185,-1.7033 -3.70142,-1.69151 -6.96684,0.63367 -1.83002,1.30309 -6.03685,3.83008 -9.34851,5.61553 -4.93385,2.66004 -5.54764,3.25038 -3.39884,3.26899 1.44229,0.0125 6.10457,-1.114 10.36063,-2.50332 z m -70.46451,-3.22397 c -8.54572,-4.97924 -22.49256,-18.91838 -28.27788,-28.26226 -18.73454,-30.25821 -16.97858,-70.00413 4.35114,-98.48774 2.91575,-3.89367 3.62361,-5.62064 3.19915,-7.80497 -0.53165,-2.73594 2.23931,-10.69503 3.72348,-10.69503 0.39084,0 2.46,-1.38174 4.59813,-3.07053 5.17397,-4.08665 11.37539,-14.38239 11.40176,-18.92947 0.014,-2.40995 0.79352,-4.23344 2.50302,-5.85496 1.69368,-1.60652 2.48272,-3.43395 2.48272,-5.75 0,-3.22243 -0.18048,-3.39504 -3.54966,-3.39504 -3.795,0 -8.29966,-1.90859 -10.35783,-4.38853 -0.98983,-1.19267 -2.61806,-1.39376 -7.55359,-0.93287 -5.85055,0.54633 -6.6025,0.37374 -10.72286,-2.46114 -2.4371,-1.67677 -5.03003,-3.77035 -5.76207,-4.6524 -0.9484,-1.14276 -2.25446,-1.43048 -4.54385,-1.00098 -2.89347,0.54281 -3.7571,0.0585 -8.68688,-4.87126 -6.30039,-6.30038 -12.70358,-10.01383 -14.88596,-8.63291 -0.79052,0.50021 -2.7357,0.91636 -4.32263,0.92478 -1.79134,0.01 -3.77807,0.97859 -5.23988,2.55591 -2.78585,3.00599 -4.39668,2.47638 -9.23765,-3.03718 -3.60357,-4.10425 -3.92333,-6.0123 -1.24752,-7.44434 1.54843,-0.8287 2.00271,-0.60935 2.51598,1.21481 0.5923,2.10504 0.68578,2.12523 1.71877,0.37122 0.95703,-1.62502 1.88715,-1.76978 7.50545,-1.16811 l 6.41305,0.68678 -2.89574,-4.33189 c -2.83451,-4.24029 -3.29853,-5.36928 -4.6022,-11.19729 -0.56829,-2.54051 -0.97063,-2.79946 -3.54856,-2.28387 -2.44165,0.48833 -2.80971,0.3065 -2.29675,-1.13461 2.02683,-5.69417 6.21584,-5.69693 12.01253,-0.008 l 4.28785,4.20821 0,-2.70821 c 0,-2.68952 -3.03064,-6.70812 -5.05902,-6.70812 -0.58246,0 -0.7809,-0.45 -0.44098,-1 1.01458,-1.64163 6.41041,-1.13298 7.95613,0.75 0.79011,0.9625 2.32197,2.875 3.40414,4.25 2.64041,3.35491 4.05616,1.66191 1.83973,-2.2 -0.96935,-1.68899 -1.5253,-3.30804 -1.23545,-3.59788 1.1566,-1.1566 5.51913,1.88468 6.11627,4.26387 0.96423,3.84182 -0.11709,6.68406 -5.13745,13.50374 -2.52044,3.42377 -4.35389,6.82106 -4.07435,7.54954 1.08976,2.83986 9.95949,6.8981 16.63567,7.61145 3.63195,0.38807 8.1542,1.59621 10.04943,2.68475 5.72168,3.28629 7.94588,3.6499 7.94588,1.29897 0,-1.11118 -0.52223,-3.16651 -1.16052,-4.56739 -0.88859,-1.95024 -0.8762,-3.17104 0.0529,-5.2101 0.66735,-1.46468 1.48239,-5.62718 1.8112,-9.25 0.428,-4.71568 1.22983,-7.34789 2.82245,-9.26548 1.22354,-1.47319 2.50775,-4.1878 2.85381,-6.03246 0.46964,-2.5034 1.36854,-3.633 3.54465,-4.45439 1.80997,-0.68319 3.68784,-2.61449 4.95248,-5.09338 1.12037,-2.19611 3.60112,-4.91576 5.51278,-6.04367 3.78022,-2.23038 5.76401,-6.9426 4.87675,-11.58403 -0.62128,-3.24998 -2.9702,-3.9392 -13.76646,-4.03934 -6.09861,-0.0566 -8.58765,0.34173 -10.47251,1.6758 -5.94676,4.20903 -12.62588,0.0231 -10.01616,-6.27736 1.65993,-4.00742 2.46458,-4.36214 5.45314,-2.40396 3.02497,1.98204 7.0215,1.26031 8.51938,-1.5385 1.18891,-2.2215 -0.24568,-3.32496 -5.65295,-4.34815 -2.70103,-0.5111 -4.16129,0.13275 -9.88668,4.35915 -3.69467,2.72735 -7.49539,4.95882 -8.44604,4.95882 -0.95066,0 -2.91415,-0.93266 -4.36332,-2.07258 -2.82088,-2.21891 -3.39858,-5.63188 -1.54083,-9.10311 1.04931,-1.96067 1.17374,-1.91314 3.04444,1.16299 1.66218,2.73323 2.35026,3.10893 4.65597,2.54223 3.43333,-0.84385 7.20556,-3.26162 7.20556,-4.61832 0,-2.04054 -2.24732,-5.45 -5.31031,-8.05639 -2.61898,-2.22857 -2.90721,-2.8878 -1.83003,-4.18572 0.70319,-0.8473 2.70334,-1.85348 4.44477,-2.23596 1.74143,-0.38249 4.12291,-1.32226 5.29218,-2.0884 1.91476,-1.2546 2.73943,-1.0462 8.30203,2.09797 l 6.17609,3.49093 0.93788,-2.46682 c 1.18224,-3.10951 2.04708,-3.09664 5.02646,0.0748 1.37445,1.46303 3.25196,2.41785 4.42431,2.25 1.80202,-0.258 1.99958,-0.89635 1.71511,-5.54159 -0.26604,-4.34437 -0.0365,-5.25 1.33045,-5.25 0.99873,0 2.27325,1.58168 3.2232,4 2.27387,5.78872 2.64845,5.52599 6.27349,-4.40035 l 1.05919,-2.90034 2.46759,3.34462 c 1.35718,1.83955 2.4819,4.7197 2.49939,6.40035 0.0175,1.68065 0.68717,3.92195 1.48818,4.98068 1.0651,1.40779 1.28873,3.35125 0.8324,7.23391 -0.42506,3.61663 -0.22288,5.79225 0.63427,6.82505 1.62884,1.96263 6.30043,1.93611 10.15594,-0.0577 1.6738,-0.86555 3.25281,-1.36419 3.50892,-1.10808 0.65655,0.65654 -2.20875,7.25129 -4.62472,10.6442 -1.11473,1.5655 -2.02679,3.56439 -2.02679,4.44199 0,2.50173 3.72362,5.59454 6.75,5.60649 2.58939,0.0102 2.37069,0.36305 -3.74468,6.04107 l -6.49467,6.0302 3.98619,2.23599 c 4.73052,2.65351 5.64489,5.17851 2.18935,6.04579 -4.1044,1.03014 -10.68623,8.19634 -10.68623,11.63499 0,1.65061 0.27809,3.00111 0.61798,3.00111 0.3399,0 2.15556,-1.35 4.0348,-3 2.32824,-2.04422 4.47405,-3 6.73528,-3 l 3.31847,0 0.64125,-7.58602 c 0.54481,-6.44502 1.32253,-8.83582 5.17078,-15.89555 2.49125,-4.57024 5.65069,-11.60586 7.02099,-15.63472 7.41464,-21.79994 18.99117,-36.20136 34.98699,-43.52449 4.99912,-2.28867 7.71204,-2.80192 16.78683,-3.17581 6.68241,-0.27533 11.2171,-0.0529 11.85125,0.58121 0.70291,0.70291 -0.34478,1.25698 -3.31872,1.75511 -7.08914,1.18741 -17.6889,5.12315 -21.38001,7.93849 -2.96382,2.26061 -3.383,3.09348 -3.01269,5.98583 0.41038,3.20527 0.20052,3.45863 -4.56188,5.50736 -4.69033,2.01772 -6.92604,4.34721 -5.52084,5.75241 0.33966,0.33966 2.17749,-0.22252 4.08407,-1.24927 4.04039,-2.1759 5.66646,-1.35073 3.04545,1.54545 -1.00159,1.10674 -1.52494,2.3084 -1.163,2.67034 0.36195,0.36194 6.9295,-1.45682 14.59457,-4.04169 7.66506,-2.58487 17.38076,-5.35877 21.59042,-6.16421 11.19384,-2.14173 28.47801,-1.79994 28.47801,0.56316 0,0.42768 -3.12567,1.72699 -6.94593,2.88736 -10.1897,3.09503 -15.31118,5.49388 -19.407,9.09005 -4.40747,3.86981 -4.71431,7.1014 -1.00105,10.54274 1.45532,1.34874 2.1158,2.45225 1.46774,2.45225 -0.64805,0 -4.77178,1.3858 -9.16385,3.07956 -12.03267,4.64029 -17.3643,10.02538 -11.40636,11.52073 1.39896,0.35111 2.39935,1.071 2.2231,1.59975 -0.17625,0.52875 -3.64278,2.61255 -7.7034,4.63066 -4.06062,2.01812 -8.02716,4.66111 -8.81454,5.87332 -1.30932,2.01577 -1.19894,2.43666 1.29243,4.92803 3.46549,3.46549 2.7331,4.71475 -5.37119,9.16188 -3.39347,1.86212 -6.16995,3.70925 -6.16995,4.10474 0,0.39549 0.70327,1.59258 1.56282,2.6602 1.31031,1.62749 1.65943,1.69877 2.16072,0.44113 0.95214,-2.38874 6.93491,-8 8.52967,-8 1.13987,0 1.35034,1.07053 0.97613,4.965 -0.44688,4.65073 -0.30254,5.04453 2.28032,6.22135 2.56532,1.16884 2.94471,1.03197 5.44669,-1.965 2.11998,-2.53939 3.45526,-3.22135 6.30746,-3.22135 1.98999,0 3.85311,0.38017 4.14028,0.84482 0.28717,0.46464 -3.84877,3.24078 -9.19098,6.16919 -21.6711,11.87931 -32.70661,20.73029 -37.69858,30.23599 -1.6766,3.19258 -2.46618,3.75 -5.31176,3.75 -2.082,0 -4.99523,1.13716 -7.72538,3.01556 -6.01127,4.13586 -9.29444,4.62859 -14.19224,2.12991 l -4.00964,-2.04556 -1.0665,2.34071 c -0.58658,1.28739 -3.12357,4.06021 -5.63776,6.16181 -2.51419,2.1016 -4.57125,4.66677 -4.57125,5.70037 0,1.0336 -1.575,3.7193 -3.5,5.96823 -5.01541,5.85938 -4.70449,8.79998 0.5,4.72897 3.17586,-2.4842 6.64118,-2.53899 7.93287,-0.12543 0.97765,1.82675 1.17628,1.82285 7.78519,-0.15282 5.46223,-1.63288 9.81214,-2.0463 22.35399,-2.12457 l 15.57205,-0.0972 -2.48365,-4.78782 c -3.65942,-7.05443 -3.60969,-17.22976 0.1215,-24.85604 5.51377,-11.26974 15.65774,-18.98418 38.71147,-29.43989 13.72273,-6.22376 21.18176,-10.67402 25.00658,-14.91962 l 2.5,-2.77502 -6,0.61339 -6,0.61338 4.56687,-2.40029 c 6.05137,-3.18052 11.55259,-9.42414 12.9886,-14.74142 0.69026,-2.55593 0.91127,-6.94903 0.54366,-10.80667 l -0.61941,-6.5 2.01325,2.5 c 3.69033,4.58255 5.357,12.51064 4.51141,21.46004 -0.41781,4.42198 -0.90955,12.08996 -1.09275,17.03996 -0.37972,10.25941 -1.50953,11.36439 -5.11237,5 -1.24541,-2.2 -2.40651,-4.40286 -2.58023,-4.89524 -0.17372,-0.49239 -5.19233,2.64121 -11.15247,6.96354 -9.23646,6.69834 -10.57918,8.01182 -9.09325,8.89524 3.76982,2.24124 6.52218,4.73474 6.05703,5.48737 -0.2688,0.43492 -1.84809,1.06264 -3.50953,1.39493 -3.95646,0.79129 -3.90382,3.26763 0.11588,5.45067 4.81692,2.616 8.25321,5.7636 7.54436,6.91054 -0.35169,0.56904 -1.94197,1.29513 -3.53397,1.61353 -5.16979,1.03396 -4.90512,3.4881 1.41672,13.13645 l 1.82438,2.78435 -4.34329,-0.7338 -4.34328,-0.73379 0.64243,3.36311 c 0.35334,1.8497 0.9345,4.66107 1.29147,6.24748 0.62128,2.76108 0.51633,2.8649 -2.45488,2.42882 -3.41804,-0.50166 -4.18063,0.45938 -4.18063,5.26859 0,2.89268 -2.16456,4.07899 -3.5,1.91821 -1.21962,-1.97338 -2.3628,-0.92333 -4.08258,3.75 -2.76399,7.51088 -3.13013,7.64336 -6.34913,2.29724 -0.74017,-1.22928 -1.12652,-1.2438 -2.51147,-0.0944 -1.45834,1.21032 -0.95325,1.79053 4.63422,5.32341 12.46305,7.88021 24.61902,21.4485 31.55731,35.22375 11.66368,23.15701 11.67121,53.71967 0.0189,77 -6.94613,13.87784 -20.21272,28.31663 -32.84768,35.75 -3.50577,2.0625 -6.05223,3.75 -5.65883,3.75 1.92809,0 21.20036,-6.67712 28.85564,-9.9974 19.34221,-8.38917 40.43553,-23.23886 54.68817,-38.50045 60.79555,-65.09928 62.60907,-162.93382 4.26757,-230.22401 C 421.23401,98.913338 347.87239,78.973638 283.906,100.36054 c -51.36532,17.17379 -90.3379,55.6421 -108.1159,106.71696 -19.5549,56.17977 -7.81055,118.82185 31.02369,165.47438 14.96246,17.97477 37.64531,35.27784 58.85065,44.8928 7.46883,3.38653 29.08587,10.87919 31.45566,10.90281 0.81248,0.008 -1.41896,-1.67277 -4.95877,-3.73527 z m 174.08497,-99.75 c -2.64597,-2.475 -5.21419,-4.49522 -5.70715,-4.48937 -0.49297,0.006 -3.1463,1.80106 -5.8963,3.98937 -4.856,3.86415 -7.5,4.95341 -7.5,3.08979 0,-0.50062 1.34964,-3.76312 2.99921,-7.25 2.31343,-4.89017 2.99939,-7.7378 3,-12.45387 l 7.9e-4,-6.11407 -4.36011,-0.59762 c -12.94797,-1.77472 -23.49623,-9.53201 -27.71993,-20.38551 -3.11444,-8.00305 -3.8755,-25.07114 -1.44875,-32.4905 3.58646,-10.96499 11.26664,-18.34359 22.92959,-22.02923 8.10589,-2.56157 20.0168,-2.58314 28.68452,-0.052 6.53976,1.90977 6.614,1.90919 10.72956,-0.0841 2.27933,-1.10394 4.38939,-1.762 4.68903,-1.46236 0.29965,0.29964 -0.14115,3.17839 -0.97955,6.39721 -0.8384,3.21882 -1.52436,7.70119 -1.52436,9.96081 0,2.25962 -0.6861,6.41873 -1.52466,9.24248 -1.48165,4.98932 -5.69792,11.22897 -7.58763,11.22897 -0.55523,0 -0.66997,-3.17203 -0.28272,-7.81553 1.06259,-12.74138 -2.82925,-18.84506 -14.1445,-22.18321 -8.27141,-2.44017 -16.43562,2.01917 -20.55206,11.22566 -2.08556,4.66438 -2.35776,6.77374 -2.35806,18.27308 -3.9e-4,14.53128 1.68409,22.24833 5.96754,27.33892 2.46466,2.92908 7.75624,5.55359 8.89708,4.41276 0.32175,-0.32176 0.58501,-3.70716 0.58501,-7.52312 0,-6.86622 -1.92281,-12.49717 -6.49786,-19.02897 -0.82618,-1.17953 -1.50214,-2.54326 -1.50214,-3.0305 0,-1.50818 5.23502,0.33156 11.13081,3.91169 3.09695,1.88057 5.94838,3.41922 6.33652,3.41922 0.38814,0 2.69103,-1.42575 5.11753,-3.16833 2.4265,-1.74258 4.66708,-2.91306 4.97907,-2.60107 0.31199,0.31199 -0.83278,3.04797 -2.54393,6.07997 -2.8198,4.9964 -3.0835,6.20002 -2.81559,12.85107 0.2299,5.7076 0.62723,7.33836 1.78796,7.33836 0.8208,0 4.1958,-4.46564 7.5,-9.92364 3.3042,-5.458 6.5128,-10.08889 7.13023,-10.29087 0.76388,-0.24988 1.30563,3.24074 1.69537,10.92364 0.31502,6.20998 0.88889,12.60202 1.27527,14.20454 l 0.70249,2.91368 -3.49226,-2.66368 c -1.92074,-1.46502 -4.01617,-2.66367 -4.65652,-2.66367 -0.64035,0 -3.02789,1.35 -5.30565,3 -2.27776,1.65 -4.74886,3 -5.49134,3 -1.90809,0 -1.79523,11.99855 0.1568,16.67041 0.82871,1.9834 3.12369,5.13115 5.09994,6.99499 2.95462,2.78657 3.37595,3.65058 2.3708,4.86171 -2.08105,2.50751 -4.87173,1.65197 -9.87405,-3.02711 z m -259.62706,-7.53819 c -0.3529,-0.57101 -0.0787,-3.23446 0.60922,-5.91878 1.09395,-4.26837 1.0387,-5.20436 -0.44043,-7.4618 -1.34023,-2.04545 -2.50171,-2.58123 -5.59565,-2.58123 -4.77665,0 -7.36656,-2.84284 -9.6051,-10.54315 -1.37511,-4.73022 -1.36651,-5.61111 0.0903,-9.25203 1.46753,-3.66772 1.47087,-4.29332 0.0377,-7.06478 -0.9058,-1.75163 -1.57241,-5.52848 -1.57241,-8.90888 0,-19.18113 11.13111,-29.10492 31.4496,-28.03847 18.374,0.96439 26.43983,11.76957 23.86952,31.97621 -1.03631,8.14703 -1.00736,8.37612 1.31058,10.36866 2.69561,2.31721 3.07829,6.14413 0.9021,9.02131 -0.8075,1.06762 -1.4825,3.34853 -1.5,5.06869 -0.0409,4.02412 -1.90501,5.49301 -8.24222,6.49479 -2.8217,0.44605 -5.43668,1.30664 -5.81107,1.91243 -0.3744,0.60578 -0.271,3.35568 0.22977,6.11087 0.50077,2.7552 0.77127,5.98705 0.60111,7.1819 -0.30091,2.11292 -0.37598,2.0971 -2.73973,-0.57755 -2.67979,-3.03228 -4.06966,-3.49213 -4.06966,-1.34651 0,0.97584 -1.55364,1.50907 -5.09884,1.75 -4.19348,0.28498 -5.2784,0.0109 -6.1101,-1.54348 -0.93513,-1.74769 -1.16095,-1.65358 -2.99936,1.25 -2.00672,3.16939 -4.1353,4.01108 -5.31531,2.1018 z m 14.47562,-12.47704 c 2.38506,0.75699 2.62017,-0.32001 0.6562,-3.00589 -1.13774,-1.55596 -1.66561,-1.67613 -2.89193,-0.65837 -0.82508,0.68475 -1.73838,2.15598 -2.02954,3.2694 -0.4256,1.62749 -0.26013,1.80093 0.84395,0.88462 0.75533,-0.62687 2.29493,-0.84726 3.42132,-0.48976 z m -6.81279,-10.42385 2.36078,-1.93908 -2.10325,-2.1364 c -2.91685,-2.9628 -10.25065,-3.90573 -11.98028,-1.54033 -1.27461,1.74315 -0.9758,3.93079 0.86121,6.30489 1.50115,1.94005 8.17621,1.51657 10.86154,-0.68908 z m 20.96331,-1.11323 c 3.11253,-1.58789 3.9521,-2.54963 3.71017,-4.25 -0.2733,-1.92076 -0.9094,-2.18989 -5.04805,-2.13577 -5.83802,0.0763 -10.34444,3.48622 -8.6908,6.57607 1.30597,2.44023 5.01021,2.36994 10.02868,-0.1903 z m 99.64825,120.46975 c -0.19569,-0.19569 -2.00525,-0.0881 -4.02123,0.23902 -3.36683,0.54636 -3.57388,0.76788 -2.5416,2.71918 0.6181,1.1684 2.29118,3.66909 3.71794,5.55708 l 2.59411,3.43273 0.30329,-5.79611 c 0.1668,-3.18785 0.14317,-5.95621 -0.0525,-6.1519 z m 26.66155,2.94561 c -8.78262,-2.36014 -8.05682,-2.48882 -11.09508,1.96717 -1.54949,2.27252 -3.20428,4.75144 -3.67732,5.50871 -0.47303,0.75726 2.86252,-0.55986 7.41234,-2.92693 4.54982,-2.36708 7.86185,-4.4141 7.36006,-4.54895 z m -38.46129,2.27853 c -1.62683,-2.75726 -2.4448,-3.26985 -4.5697,-2.86365 -2.52214,0.48214 -2.4771,0.56619 1.76524,3.29423 2.39438,1.5397 4.45074,2.82835 4.56969,2.86365 0.11896,0.0353 -0.6754,-1.4471 -1.76523,-3.29423 z m 23.13358,-3.89158 c 0.85762,-1.52254 0.52626,-1.75 -2.54944,-1.75 l -3.53518,0 0.036,4.75 0.036,4.75 2.51347,-3 c 1.38241,-1.65 2.95706,-3.7875 3.49922,-4.75 z m -44.30455,1.35433 c 2.2573,-1.19483 2.22098,-1.27376 -3.63815,-7.90561 -3.25502,-3.68429 -7.68206,-9.44716 -9.83786,-12.80636 l -3.91963,-6.10765 -6.69222,2.99112 c -3.68071,1.64511 -6.69221,3.55127 -6.69221,4.23591 0,2.05367 12.89239,15.32997 18.90046,19.46327 4.88595,3.36133 5.85442,3.69194 7.59954,2.59423 1.1,-0.69191 3.02603,-1.80112 4.28007,-2.46491 z m 93.31174,-8.63854 c 3.0755,-3.02354 7.04513,-7.52106 8.82142,-9.99449 l 3.2296,-4.49714 -5.32142,-2.47731 c -2.92677,-1.36252 -5.99641,-2.46833 -6.82141,-2.45734 -0.825,0.011 -3.075,2.77708 -5,6.14689 -1.925,3.3698 -6.5111,9.35555 -10.19133,13.30166 l -6.69133,7.17475 4.19133,2.04833 4.19133,2.04834 4,-2.89817 c 2.2,-1.59399 6.51632,-5.37198 9.59181,-8.39552 z m -77.85309,2.88667 c 0.41467,-0.25628 -5e-5,-1.90292 -0.92161,-3.65921 -0.92155,-1.75629 -3.2845,-7.97377 -5.251,-13.81662 l -3.57545,-10.62337 -7.43955,1.93237 c -4.09176,1.06281 -8.03895,2.26781 -8.77154,2.67779 -1.79597,1.00508 4.92943,11.40738 12.52077,19.36611 5.31109,5.56812 5.84225,5.8725 9.1612,5.24986 1.93778,-0.36353 3.86251,-0.87064 4.27718,-1.12693 z m 57.13397,-4.76853 c 5.50805,-5.76763 11.48234,-14.2828 13.15168,-18.74511 0.52087,-1.39234 -0.91633,-2.01652 -8.8807,-3.85692 -5.22618,-1.20766 -10.00603,-2.02778 -10.62189,-1.82249 -0.61586,0.20528 -2.44103,4.30518 -4.05593,9.11088 -1.61489,4.8057 -4.08019,10.99524 -5.47843,13.75454 -1.87509,3.70031 -2.20702,5.13134 -1.26484,5.45299 2.72531,0.93037 8.34294,2.34611 9.65011,2.43199 0.75498,0.0496 4.12998,-2.79704 7.5,-6.32588 z m -41.62269,2.42708 c 2.2304,-0.0109 2.25,-0.13858 2.25,-14.65461 l 0,-14.6436 -7.25,0.6728 c -3.9875,0.37003 -8.88154,0.93322 -10.87565,1.25152 l -3.62565,0.57873 1.84542,6.14207 c 1.01499,3.37815 3.32153,9.66071 5.12565,13.96126 l 3.28023,7.81917 3.5,-0.55817 c 1.925,-0.30699 4.5125,-0.56312 5.75,-0.56917 z m 20.46663,-6.01101 c 3.58725,-7.26262 8.16993,-20.94621 7.30539,-21.81342 -0.37645,-0.37762 -5.14791,-0.84125 -10.60324,-1.03029 l -9.91878,-0.3437 0,14.64596 0,14.64597 5.25,-0.30226 5.25,-0.30226 2.71663,-5.5 z m -77.89277,-14.83633 c 5.39997,-2.64016 6.67805,-3.68348 6.12506,-5 -2.36259,-5.62478 -4.56005,-14.39477 -5.55942,-22.18746 l -1.15116,-8.97621 -9.36917,0 -9.36917,0 0,2.91203 c 0,9.88093 9.04774,38.15486 11.80866,36.90175 0.38024,-0.17258 3.76208,-1.81513 7.5152,-3.65011 z m 140.17435,-13.53928 c 1.40169,-4.33158 2.82905,-11.19408 3.1719,-15.25 l 0.62336,-7.37439 -8.49852,0 -8.49852,0 -0.61916,7.75 c -0.51608,6.45964 -1.75304,12.15862 -4.78286,22.03577 -0.243,0.79217 2.10089,2.3527 6.10559,4.06502 l 6.5,2.77924 1.72484,-3.06501 c 0.94865,-1.68576 2.87167,-6.60904 4.27337,-10.94063 z m -116.70722,5.13491 c 6.69493,-1.69838 8.17134,-2.40704 7.66945,-3.68128 -0.34186,-0.86791 -0.87717,-6.64052 -1.1896,-12.82802 l -0.56805,-11.25 -12.37045,0 c -12.29783,0 -12.36775,0.0132 -11.91182,2.25 0.25224,1.2375 0.73222,4.65704 1.06662,7.59897 0.3344,2.94193 1.74262,8.94067 3.12938,13.33053 2.07391,6.5651 2.8197,7.86634 4.20243,7.33231 0.92458,-0.35709 5.412,-1.59572 9.97204,-2.75251 z m 94.94173,-7.12502 c 1.228,-4.31237 2.52764,-10.71923 2.8881,-14.23748 l 0.65537,-6.3968 -13.06614,0 -13.06614,0 -0.59696,5.75 c -0.32833,3.1625 -0.98346,8.45 -1.45585,11.75 -0.47239,3.3 -0.65958,6.3375 -0.41598,6.75 0.2436,0.4125 1.65386,0.78672 3.1339,0.8316 1.48004,0.0449 5.84098,0.89794 9.69098,1.89568 3.85,0.99775 7.675,1.7429 8.5,1.65588 0.97161,-0.10247 2.28649,-2.92014 3.73272,-7.99888 z m -68.64986,2.71499 9.91714,-0.64991 0,-11.34968 0,-11.34968 -12.65082,0 -12.65083,0 0.61656,9.25 c 0.83852,12.58 1.59855,15.99719 3.40391,15.3044 0.79579,-0.30537 5.90961,-0.84768 11.36404,-1.20513 z m 38.80563,-7.59927 c 0.6026,-4.5375 1.23385,-9.9375 1.40278,-12 l 0.30713,-3.75 -12.7992,0 -12.7992,0 0,11.46617 0,11.46617 10.75,0.32145 c 5.9125,0.17679 11.04089,0.41702 11.39642,0.53383 0.35554,0.11681 1.13947,-3.50012 1.74207,-8.03762 z m -88.37772,-26.5 c 0.86506,-7.59775 3.33338,-17.71108 5.63375,-23.08291 2.15867,-5.04091 2.17922,-5.16709 0.84165,-5.16709 -0.55761,0 -3.73314,-1.2952 -7.05675,-2.87822 l -6.04291,-2.87821 -1.39346,2.12821 c -4.63746,7.08276 -9.40811,21.27942 -11.0484,32.87822 l -0.67174,4.75 9.54159,0 9.54159,0 0.65468,-5.75 z m 29.52892,0 c 0.0218,-3.1625 0.64085,-9.125 1.3756,-13.25 0.73476,-4.125 1.27939,-7.52833 1.21031,-7.56296 -0.0691,-0.0346 -3.5006,-0.8344 -7.6256,-1.77729 -4.125,-0.94288 -8.44239,-1.9612 -9.59421,-2.26293 -1.74449,-0.45699 -2.4386,0.25728 -4.15654,4.27729 -2.72934,6.38669 -4.15933,11.93582 -5.10934,19.82702 l -0.78239,6.49887 12.32124,0 12.32124,0 0.0397,-5.75 z m 29.96031,-6.10272 0,-11.85272 -10.6269,-0.68704 c -5.8448,-0.37788 -10.82443,-0.48952 -11.06585,-0.2481 -0.78956,0.78956 -3.23663,16.0376 -3.27236,20.39058 l -0.0349,4.25 12.5,0 12.5,0 0,-11.85272 z m 30.39061,5.60272 c -0.68217,-7.36709 -2.20129,-17.95253 -2.60637,-18.16145 -0.15633,-0.0806 -5.34674,0.0188 -11.53424,0.2209 l -11.25,0.3675 0,11.91153 0,11.91152 12.98467,0 12.98467,0 -0.57873,-6.25 z m 31.60939,4.20784 c 0,-3.59233 -3.07833,-17.09217 -5.17579,-22.69813 -1.89858,-5.07441 -2.20078,-5.38026 -4.67697,-4.73339 -1.45598,0.38036 -6.25889,1.43472 -10.67314,2.34303 l -8.0259,1.65147 0.6587,3.98959 c 0.36228,2.19427 0.97683,7.92709 1.36566,12.73959 l 0.70698,8.75 12.91023,0 c 12.3324,0 12.91023,-0.0914 12.91023,-2.04216 z m 21.98264,-0.70784 c -0.0476,-7.53887 -7.25755,-30.57342 -10.38107,-33.1657 -0.97625,-0.81022 -2.34391,-0.67182 -5.21254,0.52749 -2.13897,0.89425 -4.89964,2.01057 -6.13482,2.48071 l -2.2458,0.8548 1.92686,4.88847 c 2.31208,5.8658 5.06473,18.70425 5.06473,23.62207 l 0,3.54216 8.5,0 8.5,0 -0.0174,-2.75 z m -83.98264,-40.25 0,-14 -3.5,-0.15 c -1.925,-0.0825 -4.05897,-0.195 -4.74217,-0.25 -2.35464,-0.18956 -13.01959,24.47157 -11.31859,26.17257 0.81686,0.81686 8.61717,1.9196 14.81076,2.09382 l 4.75,0.13361 0,-14 z m 24.16494,13.13169 2.66495,-0.63169 -2.32262,-7.29751 c -1.27744,-4.01364 -3.57,-10.23248 -5.09457,-13.81966 -2.36829,-5.57238 -3.07344,-6.44118 -4.84232,-5.96614 -1.13871,0.3058 -3.75788,0.56215 -5.82038,0.56966 l -3.75,0.0136 0,14 0,14 8.25,-0.11831 c 4.5375,-0.0651 9.44923,-0.40258 10.91494,-0.75 z m 18.97643,-3.21857 8.88895,-2.08687 -2.24988,-4.00311 c -3.04858,-5.42421 -11.92528,-16.06912 -15.97656,-19.15903 -3.00545,-2.29226 -3.67206,-2.42159 -7.38003,-1.4318 l -4.07615,1.08807 3.2553,7.4883 c 1.79041,4.11857 4.02897,10.34649 4.97457,13.83982 0.9456,3.49332 2.15928,6.3515 2.69707,6.3515 0.53778,0 4.97781,-0.93909 9.86673,-2.08688 z m -66.56738,-6.7217 c 1.351,-4.01971 3.78078,-9.93224 5.39952,-13.13893 l 2.94315,-5.83037 -4.10345,-1.04156 c -3.80326,-0.96537 -4.36943,-0.82782 -7.7394,1.88037 -1.99978,1.60706 -5.28013,4.88889 -7.28967,7.29294 -3.73942,4.47355 -9.96236,13.80124 -9.50955,14.25406 0.62334,0.62333 15.36487,4.27259 16.53423,4.09304 0.71985,-0.11053 2.41418,-3.48983 3.76517,-7.50955 z m 90.8561,-1.4008 2.57527,-1.34932 -5.38885,-6.47065 c -5.32656,-6.39587 -7.68943,-8.48582 -16.51256,-14.60536 -4.4039,-3.05446 -4.60391,-3.09452 -7.81178,-1.56479 -3.92027,1.86945 -4.04444,2.47657 -0.92459,4.52078 2.91209,1.90807 13.43538,14.92109 16.05344,19.85156 l 1.92102,3.61776 3.7564,-1.32533 c 2.06601,-0.72893 4.91526,-1.93253 6.33165,-2.67465 z m -115.3415,-0.0406 c 0.63743,-1.2375 2.97474,-4.68787 5.19403,-7.66748 l 4.03506,-5.41748 -2.50397,-2.08252 c -1.37718,-1.14539 -2.7968,-2.90198 -3.15471,-3.90355 -0.62046,-1.7363 -0.78344,-1.72655 -3.50226,0.20942 -1.56833,1.11675 -5.6987,5.0741 -9.17858,8.79411 l -6.32707,6.76366 5.92446,2.72768 c 7.28398,3.35362 8.05824,3.40051 9.51304,0.57616 z m -9.0735,-19.5783 c -1.51377,-0.50459 -3.69554,1.49833 -4.34739,3.99102 -0.48165,1.84183 -0.18447,1.7485 2.44065,-0.76652 1.64399,-1.57505 2.50203,-3.02607 1.90674,-3.2245 z m 24.47492,0.83873 c 1.5753,-1.64426 2.67199,-3.16203 2.43709,-3.37282 -0.23491,-0.21079 -1.94131,-1.15378 -3.792,-2.09553 -4.56866,-2.32482 -5.87809,-0.96533 -4.26286,4.42582 0.66442,2.21766 1.55579,4.0321 1.98081,4.0321 0.42502,0 2.06165,-1.34531 3.63696,-2.98957 z m 32.46935,-6.26043 -0.0406,-4.25 -2.9753,3.48132 c -2.66756,3.12125 -2.79265,3.55356 -1.20936,4.17972 3.63623,1.43805 4.2668,0.929 4.2253,-3.41104 z m 11.94567,3.32986 c 1.13017,-0.71551 0.67335,-1.88626 -2.33517,-5.98469 -2.05711,-2.80234 -3.92687,-5.09517 -4.15503,-5.09517 -0.22816,0 -0.41483,2.7 -0.41483,6 0,5.8825 0.0539,5.9997 2.75,5.98469 1.5125,-0.008 3.38226,-0.4156 4.15503,-0.90483 z m -21.90503,-4.07986 c 2.5577,-3.59196 1.78383,-3.72666 -3.33503,-0.58047 -2.45816,1.51086 -3.35572,2.54838 -2.5,2.88985 2.66225,1.06234 3.73706,0.63695 5.83503,-2.30938 z m 33.40032,2.16129 c 0.28509,-0.4613 -1.3269,-1.8758 -3.5822,-3.14336 l -4.10055,-2.30464 1.85682,3.14336 c 1.75829,2.97654 4.69314,4.13752 5.82593,2.30464 z m -38.40032,-8.14028 c 7.01738,-3.89991 7.2426,-4.12594 3.5,-3.51255 -2.2,0.36056 -7.53625,1.8194 -11.85834,3.24185 l -7.85833,2.58628 3.35833,1.74096 c 1.84709,0.95752 3.80834,1.37434 4.35834,0.92626 0.55,-0.44807 4.375,-2.69034 8.5,-4.9828 z m 51.39806,2.81405 c -0.48029,-0.77712 -13.29866,-4.9986 -18.89806,-6.22371 -1.99415,-0.4363 -0.9883,0.39405 3,2.47658 3.3,1.72313 7.08388,3.91723 8.40862,4.87578 1.93015,1.39661 2.96074,1.53441 5.18799,0.69372 1.52865,-0.577 2.5643,-1.39706 2.30145,-1.82237 z m 2.68375,-23.76303 c 2.82856,-2.82856 2.89164,-3.09739 1.85779,-7.91807 -0.5886,-2.74455 -1.7158,-5.23784 -2.50489,-5.54064 -0.78909,-0.3028 -1.43471,-1.28782 -1.43471,-2.18892 0,-1.17392 -0.49611,-1.42985 -1.75,-0.90279 -0.9625,0.40457 -2.6792,0.93925 -3.81489,1.18818 -1.62146,0.3554 -1.97663,1.05398 -1.65388,3.25298 0.22605,1.54021 -0.0288,3.07221 -0.56635,3.40443 -1.51258,0.93482 1.84084,9.1603 4.2207,10.35279 1.13543,0.56895 2.21154,1.08969 2.39134,1.15723 0.17981,0.0675 1.64451,-1.19481 3.25489,-2.80519 z m 109.75302,166.60378 c 2.16335,-2.30278 2.05532,-3.95462 -0.20197,-3.08842 -1.3226,0.50753 -11.33519,-9.21839 -10.42605,-10.12753 0.32243,-0.32243 4.29362,1.2778 8.82488,3.55607 7.2428,3.64161 8.41606,3.9649 9.7064,2.67455 1.29034,-1.29034 0.59881,-2.38252 -5.72103,-9.03567 -3.95384,-4.16236 -6.89859,-8.03748 -6.54391,-8.61137 1.49341,-2.41638 -0.77204,-3.11127 -3.07865,-0.94433 -2.8749,2.70083 -3.10238,4.26034 -0.50101,3.4347 1.40974,-0.44744 2.94097,0.62113 5.99354,4.18261 2.25503,2.63097 4.10296,5.1261 4.10651,5.54474 0.004,0.41864 -3.48787,-0.99576 -7.75873,-3.1431 l -7.76518,-3.90426 -2.8623,2.28232 c -3.02142,2.40919 -2.87845,4.64905 0.24461,3.83235 2.50672,-0.65553 13.37421,11.38189 12.56849,13.92153 -0.77699,2.44906 0.82773,2.1792 3.4144,-0.57419 z m -293.39454,-2.97083 c -0.59703,-1.55582 11.77631,-13.92262 13.51776,-13.51063 2.45078,0.57981 2.06597,-1.79715 -0.72361,-4.46974 l -2.79734,-2.68002 -5.76979,4.09313 c -3.17338,2.25122 -5.95467,3.90826 -6.18063,3.6823 -0.22596,-0.22596 1.36038,-3.07802 3.52519,-6.3379 l 3.93603,-5.92706 -2.67627,-2.79343 c -2.94096,-3.0697 -4.92271,-3.13984 -4.49953,-0.15925 0.36852,2.59555 -11.00891,13.90446 -13.15873,13.0795 -2.55818,-0.98167 -2.70929,0.87938 -0.25836,3.18191 2.27496,2.13721 3.91965,2.01555 3.05937,-0.22632 -0.48073,-1.25276 11.18828,-13.36815 12.04778,-12.50864 0.28296,0.28296 -2.02039,4.2196 -5.11856,8.74811 -7.55401,11.04149 -6.31431,12.35433 4.48175,4.74614 4.38854,-3.09269 8.34657,-5.62308 8.79561,-5.62308 0.44904,0 -1.85539,2.7 -5.12096,6 -3.26557,3.3 -6.73898,6 -7.7187,6 -2.43257,0 -2.24191,0.90979 0.87173,4.15972 2.58772,2.70101 4.73301,3.00987 3.78726,0.54526 z m 326.97943,-37.37203 c 2.72577,-4.01132 2.62103,-5.41787 -0.34566,-4.64207 -1.2103,0.3165 -4.56723,-1.20681 -9.05007,-4.10674 -7.49208,-4.8466 -8.39741,-7.23098 -2.37445,-6.25359 2.02054,0.32789 3.15808,0.16719 2.80946,-0.3969 -0.73144,-1.18348 -6.50692,-4.21907 -7.03068,-3.69531 -0.21219,0.2122 -2.1914,3.17941 -4.39823,6.59381 l -4.01242,6.20799 3.24117,1.97619 c 4.39246,2.67816 5.56838,2.49311 2.81071,-0.4423 -2.05794,-2.19057 -2.15564,-4.57403 -0.18749,-4.57403 2.03404,0 15.18203,9.39061 14.74447,10.53086 -0.42664,1.11181 0.12533,2.46914 1.00409,2.46914 0.1635,0 1.4186,-1.65017 2.7891,-3.66705 z m -358.41972,-3.68394 c 0,-0.74305 3.54352,-4.44508 7.87449,-8.22674 7.4597,-6.51356 7.79988,-6.98961 6.45804,-9.03752 l -1.41645,-2.16177 -9.64629,2.89615 c -5.30547,1.59288 -10.42371,2.6494 -11.37389,2.34783 -2.45277,-0.77848 -3.07367,0.83423 -1.29749,3.37007 1.88789,2.69535 3.01608,2.74515 3.69134,0.16297 0.75779,-2.89779 4.49315,-2.57059 5.89986,0.51679 0.96479,2.1175 0.85493,2.73016 -0.69248,3.86165 -1.01157,0.73968 -2.72249,1.11388 -3.80205,0.83157 -1.07956,-0.28231 -1.77566,-0.10756 -1.54687,0.38835 2.15464,4.67036 3.37497,6.40164 4.5123,6.40164 0.73672,0 1.33949,-0.60795 1.33949,-1.35099 z m 2.59443,-11.26352 c -1.03429,-2.69532 -0.6876,-3.11856 3.40557,-4.15752 2.2,-0.55842 3.99999,-0.72566 3.99997,-0.37164 -2e-5,0.35402 -1.53252,1.86645 -3.40557,3.36095 -2.83788,2.26435 -3.50462,2.45908 -3.99997,1.16821 z m 375.82516,-23.63549 c 4.14253,-9.41675 4.14242,-9.48834 -0.0174,-11.22642 -4.03847,-1.68738 -5.85715,-1.37261 -2.48785,0.43058 2.1504,1.15086 2.81896,5.34214 1.24719,7.81871 -0.64448,1.01546 -1.56538,0.95634 -4.55391,-0.29235 -4.05402,-1.69387 -4.35399,-3.77559 -0.62258,-4.32061 2.0024,-0.29247 1.73112,-0.60749 -1.93753,-2.25 -4.94891,-2.21569 -5.91472,-2.37711 -4.24752,-0.70991 3.17873,3.17873 -0.0596,4.97438 -4.50999,2.50079 -1.96176,-1.09036 -2.07112,-1.50758 -0.97361,-3.71456 0.84532,-1.69987 2.33502,-2.66112 4.70998,-3.03919 l 3.47362,-0.55296 -3.90354,-1.71017 c -2.14695,-0.94059 -4.00883,-1.59176 -4.13751,-1.44704 -0.12868,0.14472 -1.60977,3.51441 -3.2913,7.48821 -1.98574,4.69271 -2.68697,7.45396 -2.00068,7.87811 0.58115,0.35917 1.41999,0.0651 1.86409,-0.65345 0.63152,-1.02181 2.62271,-0.54092 9.1382,2.20697 4.58191,1.9324 8.38699,4.03767 8.45574,4.67838 0.37669,3.51053 1.18065,2.8569 3.79459,-3.08509 z m -395.16959,-6.31092 c 3.68503,-0.87891 3.53941,-2.54696 -0.15779,-1.80752 -2.26612,0.45322 -3.14881,0.13121 -4,-1.45926 -2.01131,-3.75816 -1.21323,-4.62987 6.33753,-6.9223 8.40309,-2.55119 10.57026,-2.76647 10.57026,-1.05 0,0.87794 0.29736,0.90265 1.10794,0.0921 0.81058,-0.81058 0.78976,-2.07199 -0.0776,-4.7 -1.16571,-3.53216 -3.03039,-4.90268 -3.03039,-2.22733 0,1.55814 -17.29307,6.88559 -17.83333,5.49388 -0.18334,-0.47226 -1.01898,-0.85865 -1.85699,-0.85865 -0.84094,0 -1.29967,0.5837 -1.02377,1.30268 0.27493,0.71647 1.28534,4.10203 2.24535,7.52347 1.3517,4.81745 2.10903,6.11342 3.3571,5.74481 0.8864,-0.26179 2.84914,-0.77114 4.36164,-1.13188 z m 405.13194,-35.5988 c 0.74792,-3.7396 0.2155,-4.581 -1.82642,-2.88636 -1.18758,0.98561 -2.93738,0.98076 -8.55797,-0.0237 -3.88584,-0.69444 -6.71245,-1.56937 -6.28136,-1.94429 0.4311,-0.37492 4.15881,-1.25936 8.28381,-1.96543 9.33865,-1.59847 9.69265,-1.73721 10.29327,-4.03399 0.53652,-2.05166 0.47767,-2.07205 -11.79327,-4.08666 -4.73941,-0.7781 -7.64588,-1.82967 -9,-3.25621 l -2,-2.10696 -0.55709,3.48166 c -0.63215,3.95073 0.66832,6.39065 2.07682,3.89647 0.7624,-1.35006 1.79145,-1.44084 6.93772,-0.61206 3.3234,0.53522 6.04255,1.31486 6.04255,1.73253 0,0.41767 -3.0375,1.27512 -6.75,1.90544 -3.7125,0.63033 -7.49005,1.36679 -8.39455,1.63658 -1.98681,0.59262 -3.12595,7.42269 -1.23798,7.42269 0.66872,0 1.37619,-0.48097 1.57213,-1.06881 0.25165,-0.75495 2.40516,-0.73808 7.33334,0.0574 8.2372,1.32965 11.82345,2.64189 10.97443,4.01563 -0.33847,0.54766 0.0299,0.99575 0.81861,0.99575 0.80946,0 1.70925,-1.37615 2.06596,-3.15972 z m -418.38194,-5.82666 c 0,-0.54251 4.73715,-2.43632 10.52699,-4.20846 7.69552,-2.35543 10.38525,-3.59147 10,-4.59541 -0.28984,-0.75533 -0.52699,-1.92881 -0.52699,-2.60774 0,-0.82045 -3.4256,-1.63634 -10.21466,-2.43288 -5.61806,-0.65915 -10.65806,-1.64185 -11.2,-2.18379 -1.79524,-1.79524 -2.58534,-1.02675 -2.58534,2.51466 0,2.44444 0.45238,3.5 1.5,3.5 0.825,0 1.5,-0.7063 1.5,-1.56955 0,-1.0557 0.73662,-1.46493 2.25,-1.25 3.33061,0.47302 3.8101,6.34831 0.60122,7.36677 -1.39105,0.4415 -2.40821,0.28181 -2.64032,-0.41452 -0.86468,-2.59404 -2.2109,-0.84813 -2.2109,2.8673 0,2.88889 0.41667,4 1.5,4 0.825,0 1.5,-0.44387 1.5,-0.98638 z m 7,-10.13862 c 0,-1.84667 0.40931,-2.04314 3.125,-1.5 1.71875,0.34375 3.85625,0.66155 4.75,0.70622 2.04889,0.1024 -3.72606,2.81185 -6.125,2.87368 -1.1318,0.0292 -1.75,-0.70557 -1.75,-2.0799 z m 397,-27.875 c 0,-0.55 -1.13912,-1 -2.53138,-1 -2.2424,0 -4.44043,-2.36153 -3.27902,-3.52293 0.24017,-0.24017 4.28124,-0.73219 8.98015,-1.09338 5.94502,-0.45697 8.75712,-0.31104 9.24588,0.4798 1.48036,2.39526 2.58437,0.95841 2.58437,-3.36349 0,-3.33333 -0.38889,-4.5 -1.5,-4.5 -0.825,0 -1.5,0.60816 -1.5,1.35147 0,0.98416 -2.35267,1.5175 -8.6564,1.96236 -4.76101,0.33599 -9.01636,0.38841 -9.45632,0.1165 -1.43323,-0.88578 0.2223,-3.29814 2.94873,-4.29672 2.47562,-0.90672 2.36348,-0.9813 -1.58601,-1.05466 l -4.25,-0.0789 0,7.33333 c 0,4.03334 0.3,7.63334 0.66667,8 1.06195,1.06195 8.33333,0.7711 8.33333,-0.33333 z m -383.5,-5 c -0.35922,-1.13181 -0.1797,-2 0.41356,-2 1.58695,0 2.39696,-4.55127 1.20605,-6.77651 -3.15335,-5.89208 -19.77131,-7.18981 -23.3543,-1.82379 -2.69613,4.03784 1.07408,10.66439 5.98469,10.51873 l 2.75,-0.0816 -3.31364,-1.44726 c -2.73963,-1.19656 -3.25931,-1.91545 -3,-4.15002 0.39927,-3.44067 3.88065,-4.75653 10.11207,-3.82207 5.98551,0.89758 9.64379,3.72905 8.10071,6.26985 -0.60548,0.99696 -2.29298,1.95504 -3.75,2.12907 -3.46431,0.41379 -3.40206,1.93668 0.10086,2.46733 5.35031,0.8105 5.4096,0.79447 4.75,-1.28375 z m 0.3,-37.2 c 0.66,-0.66 1.2,-2.37 1.2,-3.8 0,-3.30476 -1.69524,-5 -5,-5 -3.30476,0 -5,1.69524 -5,5 0,3.30476 1.69524,5 5,5 1.43,0 3.14,-0.54 3.8,-1.2 z m 383.62857,-0.37143 c 3.2336,-3.23359 0.78239,-8.42857 -3.97695,-8.42857 -1.4624,0 -3.04774,0.98016 -4.04358,2.5 -1.51741,2.31587 -1.51741,2.68413 0,5 1.88343,2.87447 5.63974,3.30936 8.02053,0.92857 z M 169.05564,176.78545 c 2.19761,-3.72467 1.95617,-6.38929 -0.40163,-4.43249 -0.98853,0.82041 -3.17924,-0.0465 -8.91097,-3.52634 -4.1801,-2.5378 -7.60019,-4.98234 -7.60019,-5.4323 0,-1.29587 2.37351,-1.86795 5.56338,-1.34093 2.81433,0.46497 2.77152,0.38136 -1.02807,-2.0079 l -3.9647,-2.49308 -3.74999,6.15491 c -2.0625,3.38519 -3.76589,6.62038 -3.78531,7.18929 -0.0194,0.56892 1.34584,1.85026 3.03392,2.84744 3.30585,1.95281 4.95161,1.71028 2.45494,-0.36177 -1.69387,-1.40579 -2.08072,-5.02006 -0.53733,-5.02006 0.54276,0 4.14276,1.89031 8,4.20068 4.52937,2.71296 7.01316,4.83793 7.01316,6 0,2.84479 1.61973,2.109 3.91279,-1.77745 z m 341.71507,2.04938 c -0.38733,-1.00937 0.50906,-2.19515 2.64301,-3.49626 1.77602,-1.08288 3.56663,-1.97056 3.97913,-1.97261 1.21519,-0.006 0.85762,3.48553 -0.5,4.88239 -0.6875,0.70737 0.8875,0.25771 3.5,-0.99926 5.14489,-2.4754 5.98223,-3.5912 2.60121,-3.46627 -3.49215,0.12904 -3.15751,-1.90411 0.60902,-3.70025 3.33866,-1.59209 3.54388,-1.58118 4.51864,0.24016 1.42684,2.66608 1.27975,4.09624 -0.63941,6.21688 -2.41461,2.66812 -1.23512,3.04551 2.47214,0.79099 l 3.21898,-1.95758 -3.54754,-7.04448 c -3.20974,-6.37369 -5.48304,-8.20561 -5.48304,-4.41846 0,1.81499 -15.66584,9.80184 -16.51881,8.4217 -0.63505,-1.02752 -2.48416,-0.40097 -2.47745,0.83946 0.002,0.38004 0.89544,2.15348 1.9853,3.94098 1.99459,3.27136 4.73006,4.56633 3.63882,1.72261 z m -14.12786,-32.36265 c 9.81891,-4.53172 13.30428,-14.96386 6.0966,-18.2479 -3.96354,-1.80591 -9.031,-0.19894 -14.2377,4.51498 -4.0819,3.69559 -4.7589,4.84711 -4.7589,8.09458 0,2.74929 0.63278,4.29846 2.31078,5.65722 2.8887,2.33912 5.49016,2.33448 10.58922,-0.0189 z m -10.20644,-3.78734 c -0.45699,-1.1909 0.83803,-3.03982 4.46516,-6.37498 5.81317,-5.34522 9.77232,-6.84517 12.05165,-4.56584 1.331,1.33099 1.30955,1.78624 -0.19212,4.07807 -4.27452,6.52374 -14.76282,10.93292 -16.32469,6.86275 z m -297.36945,1.43629 c 3.00981,-3.36857 3.11162,-5.19833 0.24173,-4.34486 -0.91621,0.27247 -2.99953,-0.59033 -4.6296,-1.91734 l -2.96376,-2.41273 2.35198,-2.50358 2.35199,-2.50357 2.80645,2.21159 c 1.54354,1.21637 2.83134,2.99908 2.86177,3.96158 0.0304,0.9625 0.47469,1.75 0.98724,1.75 1.5168,0 5.25464,-5.88914 4.50632,-7.09994 -0.50121,-0.81097 -0.88197,-0.80011 -1.40117,0.04 -0.99237,1.60568 -15.34952,-9.6834 -14.64616,-11.51632 1.03036,-2.68508 -1.51611,-2.53426 -3.68104,0.21801 -2.57178,3.26948 -2.83066,4.95613 -0.70939,4.62174 0.82526,-0.1301 2.7688,0.7748 4.31899,2.01087 l 2.81852,2.24741 -2.40654,2.26083 -2.40654,2.26082 -2.66245,-2.09428 c -1.46435,-1.15187 -2.66245,-2.73664 -2.66245,-3.52172 0,-2.33293 -1.71619,-1.63473 -4.05486,1.64962 -1.62064,2.27598 -1.8987,3.3694 -1.06809,4.2 0.8306,0.83061 1.12295,0.81055 1.12295,-0.077 0,-2.09381 1.44127,-1.33988 8.38029,4.38374 3.96945,3.27419 6.56015,6.12909 6.26347,6.90223 -0.45147,1.1765 0.10025,2.51403 1.037,2.51403 0.19109,0 1.65059,-1.45849 3.24335,-3.24109 z m 30.89334,-32.36949 c 3.1254,-2.53582 5.82064,-4.97508 5.98941,-5.42058 0.16878,-0.4455 -1.05553,-2.30824 -2.72069,-4.13942 -1.66515,-1.83118 -3.04073,-2.793482 -3.05686,-2.13843 -0.0161,0.65504 0.42069,1.46909 0.97069,1.80901 1.88135,1.16274 1.04191,5.24252 -1.40914,6.84851 -2.32009,1.52018 -2.50504,1.45278 -5.00399,-1.8235 -2.74675,-3.60117 -2.13384,-5.15077 1.57205,-3.97457 l 2.14102,0.67954 -2.19653,-3.08475 c -3.04986,-4.283132 -4.10341,-4.699302 -4.10341,-1.620912 0,3.194732 -1.60198,2.889392 -4.38295,-0.83542 -1.98289,-2.65587 -1.98355,-2.70095 -0.0609,-4.15514 2.24681,-1.69933 6.04309,-1.99114 6.9438,-0.53376 0.33992,0.55 1.06066,1 1.60165,1 0.54099,0 -0.23564,-1.52804 -1.72584,-3.39565 l -2.70945,-3.39565 -6.29848,5.04729 c -3.46416,2.77601 -6.07468,5.4094 -5.80116,5.85198 0.27353,0.44257 1.08953,0.57743 1.81334,0.29968 2.08799,-0.80123 12.62782,12.846222 11.94312,15.464512 -0.79621,3.04472 0.10745,2.69925 6.49427,-2.48274 z M 442.10997,95.736428 c 3.60864,-3.03647 7.03288,-9.219 7.03288,-12.69801 0,-2.88047 -3.24907,-6.32384 -9.03582,-9.57617 l -4.254,-2.39088 0.65676,2.61671 c 0.51618,2.05663 -0.31964,4.13999 -3.90487,9.73332 -2.98024,4.64948 -5.04198,6.93227 -5.94724,6.58489 -3.27001,-1.25482 -1.81653,2.0471 1.95359,4.43804 7.44741,4.72301 9.21969,4.89265 13.4987,1.2921 z m -9.10121,-1.60478 c -1.45803,-0.99305 -1.20305,-1.8217 2.36657,-7.6912 5.55116,-9.12769 5.63911,-9.21732 7.87253,-8.02203 3.59707,1.9251 1.99751,7.63785 -3.97424,14.1938 -2.71255,2.97791 -3.75298,3.23024 -6.26486,1.51943 z m -29.97469,-14.01943 c 1.84116,-4.92161 2.20323,-6.75 1.33668,-6.75 -0.49878,0 -1.41945,1.125 -2.04595,2.5 -1.28515,2.8206 -5.85513,3.51525 -6.80701,1.0347 -0.30926,-0.80592 0.65185,-5.11104 2.13579,-9.56693 1.95272,-5.86349 3.08363,-7.95367 4.09368,-7.56608 0.76757,0.29455 1.39559,-0.0498 1.39559,-0.76529 0,-1.37581 -6.75785,-3.90409 -8.14452,-3.04708 -0.44799,0.27687 -0.3446,1.27004 0.22975,2.20704 1.30159,2.12343 -3.99353,17.84429 -5.87875,17.45364 -0.66356,-0.1375 -1.20648,0.33836 -1.20648,1.05746 0,0.7191 2.8125,2.25272 6.25,3.40804 7.97412,2.68005 7.65201,2.67876 8.64122,0.0345 z m -117.42304,-1.12727 c 1.78884,-1.78884 2.67588,-2.09825 3.58366,-1.25 0.9343,0.87304 1.02103,0.45069 0.38456,-1.87273 -0.452,-1.65 -0.76396,-4.50743 -0.69324,-6.34986 0.11442,-2.98085 -0.11221,-3.28529 -2.05729,-2.76365 -1.20223,0.32241 -2.74837,0.59235 -3.43587,0.59986 -1.6852,0.0184 -1.59652,2.6667 0.11124,3.32203 1.95302,0.74945 2.63683,4.312 1.20382,6.27176 -3.06776,4.19542 -9.03844,-5.17408 -8.38562,-13.15915 0.27904,-3.41312 0.66804,-3.96113 3.0033,-4.23092 1.88992,-0.21834 3.00854,0.29883 3.78519,1.75 1.83803,3.43441 2.88305,2.31064 1.8041,-1.94007 -0.90923,-3.58208 -2.77203,-5.58527 -2.77203,-2.98095 0,0.57713 -1.04376,0.75709 -2.40686,0.41497 -7.64297,-1.91826 -10.71731,8.40942 -5.54573,18.62987 2.96306,5.8558 7.66014,7.31947 11.42077,3.55884 z m 78.53182,-6.03939 c 0,-0.77917 -0.44758,-1.56667 -0.99462,-1.75 -0.656,-0.21985 -0.63757,-2.54632 0.0541,-6.83334 1.65367,-10.24938 1.88975,-11 3.45956,-11 0.81453,0 1.48096,-0.61748 1.48096,-1.37219 0,-0.83501 -1.61818,-1.63095 -4.1335,-2.03316 -4.62505,-0.73958 -5.68672,-0.28788 -4.02616,1.71298 0.83856,1.0104 0.74781,3.50126 -0.35613,9.77416 -0.81481,4.63002 -1.48209,8.53071 -1.48284,8.66821 -7.5e-4,0.1375 -0.71387,0.25 -1.5847,0.25 -0.87084,0 -1.39757,0.5625 -1.17051,1.25 0.3501,1.06009 1.76734,1.52372 8.00384,2.61836 0.4125,0.0724 0.75,-0.50586 0.75,-1.28502 z m -36.44113,-1.00168 c 1.63856,-1.19726 1.99514,-2.91188 2.28766,-11 0.19059,-5.26991 0.75309,-9.58166 1.25,-9.58166 0.49691,0 0.90347,-0.675 0.90347,-1.5 0,-1 -1,-1.5 -3,-1.5 -2,0 -3,0.5 -3,1.5 0,0.825 0.46752,1.5 1.03893,1.5 0.66074,0 0.93376,3.14675 0.75,8.64434 -0.30263,9.05414 -1.52549,11.4382 -5.15301,10.04619 -1.34746,-0.51707 -1.63592,-2.22023 -1.63592,-9.65914 0,-5.35426 0.40715,-9.03139 1,-9.03139 0.55,0 1,-0.675 1,-1.5 0,-1.11111 -1.16667,-1.5 -4.5,-1.5 -3.17973,0 -4.5,0.4087 -4.5,1.39301 0,0.76616 0.65052,1.64264 1.44561,1.94775 1.04284,0.40017 1.28746,1.5293 0.87798,4.05261 -0.80473,4.95896 0.54534,14.3327 2.31987,16.10724 1.89238,1.89237 6.38061,1.93318 8.91541,0.0811 z"
       id="path3397"
       inkscape:connector-curvature="0" />
  </g>
</svg>
